<svg xmlns="http://www.w3.org/2000/svg"  viewBox="0 0 50 50" width="500px" height="500px"><path d="M 25.929688 0.57617188 C 22.408779 0.63419922 19.711484 1.3102344 19.365234 1.4121094 C 18.576234 1.6431094 16.987094 2.0801563 17.121094 2.6601562 C 17.207094 3.0311562 17.522187 3.2070781 19.367188 3.2050781 C 23.494187 3.2000781 26.703391 3.4692812 28.900391 3.8632812 C 33.368391 4.6702813 32.314922 6.9240312 31.044922 9.0820312 C 27.964922 14.335031 19.641203 20.245078 19.158203 20.580078 C 18.523203 21.017078 18.871781 21.272406 19.425781 21.066406 C 26.173781 18.556406 32.97275 14.228703 35.71875 8.9707031 C 38.04875 4.5107031 36.377172 2.3944844 32.826172 1.3964844 C 30.449797 0.72785938 28.042232 0.54135547 25.929688 0.57617188 z M 40.720703 17.056641 C 37.627078 17.062891 34.232281 17.576203 32.113281 19.408203 C 28.579281 22.464203 33.819203 27.500719 36.283203 30.386719 C 38.683203 33.192719 41.587656 36.753563 41.722656 37.976562 C 41.785656 38.537562 41.672 39.174797 41 39.591797 C 39.903 40.275797 35.370141 40.939641 25.994141 40.931641 C 23.959141 40.930641 23.545141 41.128187 23.494141 41.492188 C 23.465141 41.683188 23.402234 42.123438 25.990234 42.773438 C 26.061234 42.792437 36.735734 44.755438 42.427734 42.773438 C 48.243734 40.789437 46.779328 37.439859 45.736328 35.505859 C 44.130328 32.524859 36.716469 23.859641 36.105469 22.681641 C 35.533469 21.578641 36.367188 21.09375 36.367188 21.09375 C 36.367188 21.09375 37.607234 19.603453 47.490234 19.689453 C 49.526234 19.704453 49.950047 19.490047 49.998047 19.123047 C 50.038047 18.820047 49.456531 18.163047 47.519531 17.748047 C 46.606031 17.552047 43.814328 17.050391 40.720703 17.056641 z M 16.095703 23.578125 C 12.293008 23.623877 9.2364844 24.351953 8.5527344 24.533203 C 6.8967344 24.972203 5.9261406 25.415594 5.9941406 25.933594 C 6.0461406 26.316594 6.4689062 26.580297 8.5039062 26.529297 C 13.354906 26.411297 17.372109 26.576109 19.912109 27.287109 C 23.058109 28.165109 23.446672 29.786703 21.888672 32.970703 C 21.168672 34.441703 20.101281 35.961172 18.488281 37.576172 C 15.267281 40.808172 11.242609 42.909594 8.9746094 44.058594 C 6.7696094 45.177594 5.9639844 44.583469 6.2089844 43.480469 C 6.5109844 42.129469 12.765625 31.302734 12.765625 31.302734 C 13.235625 30.480734 13.319625 29.708516 12.765625 29.478516 C 12.291625 29.276516 11.432062 29.943563 10.539062 30.976562 C 6.8880625 35.216563 0.15429688 48.119969 0.029296875 48.542969 C -0.094703125 48.946969 0.22179688 48.997 0.34179688 49 C 3.1927969 48.978 20.694797 43.800703 26.341797 33.220703 C 29.318797 27.649703 27.812531 25.807047 23.394531 24.498047 C 20.927781 23.768672 18.37732 23.550674 16.095703 23.578125 z"/></svg>